<mxfile host="drawio-plugin" modified="2024-01-11T18:13:38.767Z" agent="5.0 (Windows NT 6.2; Win64; x64) AppleWebKit/537.36 (KHTML, like Gecko) Chrome/104.0.5112.102 Safari/537.36" etag="5yBysYgZw8oxON3MpQis" version="20.5.3" type="embed"><diagram id="L0xDlBGCaa63no6Fkt4c" name="Page-1"><mxGraphModel dx="652" dy="563" grid="1" gridSize="10" guides="1" tooltips="1" connect="1" arrows="1" fold="1" page="1" pageScale="1" pageWidth="850" pageHeight="1100" math="0" shadow="0"><root><mxCell id="0"/><mxCell id="1" parent="0"/><mxCell id="10" value="«abstract»&lt;br&gt;&lt;b&gt;Breakfast&lt;/b&gt;" style="html=1;fillColor=#0050ef;fontColor=#ffffff;strokeColor=#001DBC;" vertex="1" parent="1"><mxGeometry x="250" y="250" width="210" height="50" as="geometry"/></mxCell><mxCell id="11" value="&lt;p style=&quot;margin: 4px 0px 0px;&quot;&gt;+ method: serve()&amp;nbsp; &amp;nbsp; &amp;nbsp; &amp;nbsp; &amp;nbsp; &amp;nbsp; &amp;nbsp; &amp;nbsp; &amp;nbsp; &amp;nbsp; &amp;nbsp; &amp;nbsp; &amp;nbsp; &amp;nbsp; void&lt;br&gt;&lt;br&gt;&lt;/p&gt;" style="verticalAlign=top;align=left;overflow=fill;fontSize=12;fontFamily=Helvetica;html=1;fillColor=#6d8764;fontColor=#ffffff;strokeColor=#3A5431;" vertex="1" parent="1"><mxGeometry x="250" y="300" width="210" height="20" as="geometry"/></mxCell><mxCell id="12" value="&lt;p style=&quot;margin: 4px 0px 0px;&quot;&gt;+ method: prepareIngredients()&amp;nbsp; &amp;nbsp; &amp;nbsp; void&lt;br&gt;&lt;br&gt;&lt;/p&gt;" style="verticalAlign=top;align=left;overflow=fill;fontSize=12;fontFamily=Helvetica;html=1;fillColor=#6d8764;fontColor=#ffffff;strokeColor=#3A5431;" vertex="1" parent="1"><mxGeometry x="250" y="320" width="210" height="20" as="geometry"/></mxCell><mxCell id="13" value="&lt;p style=&quot;margin: 4px 0px 0px;&quot;&gt;+ method: prepareBreakfast()&amp;nbsp; &amp;nbsp; &amp;nbsp; &amp;nbsp; &amp;nbsp;void&lt;br&gt;&lt;br&gt;&lt;/p&gt;" style="verticalAlign=top;align=left;overflow=fill;fontSize=12;fontFamily=Helvetica;html=1;fillColor=#6d8764;fontColor=#ffffff;strokeColor=#3A5431;" vertex="1" parent="1"><mxGeometry x="250" y="340" width="210" height="20" as="geometry"/></mxCell><mxCell id="14" value="&lt;p style=&quot;margin: 4px 0px 0px;&quot;&gt;+ method: warmUpTheSkillet()&amp;nbsp; &amp;nbsp; &amp;nbsp; &amp;nbsp;void&lt;br&gt;&lt;br&gt;&lt;/p&gt;" style="verticalAlign=top;align=left;overflow=fill;fontSize=12;fontFamily=Helvetica;html=1;fillColor=#6d8764;fontColor=#ffffff;strokeColor=#3A5431;" vertex="1" parent="1"><mxGeometry x="250" y="360" width="210" height="20" as="geometry"/></mxCell><mxCell id="15" value="&lt;p style=&quot;margin: 4px 0px 0px;&quot;&gt;+ method: cook()&amp;nbsp; &amp;nbsp; &amp;nbsp; &amp;nbsp; &amp;nbsp; &amp;nbsp; &amp;nbsp; &amp;nbsp; &amp;nbsp; &amp;nbsp; &amp;nbsp; &amp;nbsp; &amp;nbsp; &amp;nbsp; &amp;nbsp;void&lt;br&gt;&lt;br&gt;&lt;/p&gt;" style="verticalAlign=top;align=left;overflow=fill;fontSize=12;fontFamily=Helvetica;html=1;fillColor=#6d8764;fontColor=#ffffff;strokeColor=#3A5431;" vertex="1" parent="1"><mxGeometry x="250" y="380" width="210" height="20" as="geometry"/></mxCell><mxCell id="16" value="BeckonBreakfast" style="swimlane;fontStyle=1;align=center;verticalAlign=top;childLayout=stackLayout;horizontal=1;startSize=26;horizontalStack=0;resizeParent=1;resizeParentMax=0;resizeLast=0;collapsible=1;marginBottom=0;fillColor=#1ba1e2;fontColor=#ffffff;strokeColor=#006EAF;" vertex="1" parent="1"><mxGeometry x="40" y="440" width="210" height="46" as="geometry"/></mxCell><mxCell id="22" value="&lt;p style=&quot;margin: 4px 0px 0px;&quot;&gt;+ method: cook()&amp;nbsp; &amp;nbsp; &amp;nbsp; &amp;nbsp; &amp;nbsp; &amp;nbsp; &amp;nbsp; &amp;nbsp; &amp;nbsp; &amp;nbsp; &amp;nbsp; &amp;nbsp; &amp;nbsp; &amp;nbsp; &amp;nbsp;void&lt;br&gt;&lt;br&gt;&lt;/p&gt;" style="verticalAlign=top;align=left;overflow=fill;fontSize=12;fontFamily=Helvetica;html=1;fillColor=#6d8764;fontColor=#ffffff;strokeColor=#3A5431;" vertex="1" parent="16"><mxGeometry y="26" width="210" height="20" as="geometry"/></mxCell><mxCell id="19" value="SausageBreakfast" style="swimlane;fontStyle=1;align=center;verticalAlign=top;childLayout=stackLayout;horizontal=1;startSize=26;horizontalStack=0;resizeParent=1;resizeParentMax=0;resizeLast=0;collapsible=1;marginBottom=0;fillColor=#1ba1e2;fontColor=#ffffff;strokeColor=#006EAF;" vertex="1" parent="1"><mxGeometry x="450" y="440" width="210" height="46" as="geometry"/></mxCell><mxCell id="24" value="&lt;p style=&quot;margin: 4px 0px 0px;&quot;&gt;+ method: cook()&amp;nbsp; &amp;nbsp; &amp;nbsp; &amp;nbsp; &amp;nbsp; &amp;nbsp; &amp;nbsp; &amp;nbsp; &amp;nbsp; &amp;nbsp; &amp;nbsp; &amp;nbsp; &amp;nbsp; &amp;nbsp; &amp;nbsp;void&lt;br&gt;&lt;br&gt;&lt;/p&gt;" style="verticalAlign=top;align=left;overflow=fill;fontSize=12;fontFamily=Helvetica;html=1;fillColor=#6d8764;fontColor=#ffffff;strokeColor=#3A5431;" vertex="1" parent="19"><mxGeometry y="26" width="210" height="20" as="geometry"/></mxCell><mxCell id="23" value="&lt;p style=&quot;margin: 4px 0px 0px;&quot;&gt;+ method: prepareIngredients()&amp;nbsp; &amp;nbsp; &amp;nbsp; void&lt;br&gt;&lt;br&gt;&lt;/p&gt;" style="verticalAlign=top;align=left;overflow=fill;fontSize=12;fontFamily=Helvetica;html=1;fillColor=#6d8764;fontColor=#ffffff;strokeColor=#3A5431;" vertex="1" parent="1"><mxGeometry x="40" y="486" width="210" height="20" as="geometry"/></mxCell><mxCell id="25" value="&lt;p style=&quot;margin: 4px 0px 0px;&quot;&gt;+ method: prepareIngredients()&amp;nbsp; &amp;nbsp; &amp;nbsp; void&lt;br&gt;&lt;br&gt;&lt;/p&gt;" style="verticalAlign=top;align=left;overflow=fill;fontSize=12;fontFamily=Helvetica;html=1;fillColor=#6d8764;fontColor=#ffffff;strokeColor=#3A5431;" vertex="1" parent="1"><mxGeometry x="450" y="486" width="210" height="20" as="geometry"/></mxCell><mxCell id="26" value="" style="endArrow=classic;html=1;rounded=0;entryX=0;entryY=0;entryDx=0;entryDy=0;exitX=0.44;exitY=-0.078;exitDx=0;exitDy=0;exitPerimeter=0;strokeWidth=3;strokeColor=#3399FF;" edge="1" parent="1" source="16" target="11"><mxGeometry width="50" height="50" relative="1" as="geometry"><mxPoint x="120" y="380" as="sourcePoint"/><mxPoint x="170" y="330" as="targetPoint"/></mxGeometry></mxCell><mxCell id="27" value="" style="endArrow=classic;html=1;rounded=0;entryX=1;entryY=0;entryDx=0;entryDy=0;exitX=0.44;exitY=-0.078;exitDx=0;exitDy=0;exitPerimeter=0;strokeWidth=3;strokeColor=#3399FF;" edge="1" parent="1" target="11"><mxGeometry width="50" height="50" relative="1" as="geometry"><mxPoint x="560" y="436.41200000000003" as="sourcePoint"/><mxPoint x="677.6000000000007" y="300" as="targetPoint"/></mxGeometry></mxCell></root></mxGraphModel></diagram></mxfile>